<svg width="699" height="165" viewBox="0 0 699 165" fill="none" xmlns="http://www.w3.org/2000/svg">
<path d="M58 49C58 44.0294 62.0294 40 67 40H140C144.971 40 149 44.0294 149 49V156C149 160.971 144.971 165 140 165H67C62.0294 165 58 160.971 58 156V49Z" fill="#242424"/>
<path d="M542 49C542 44.0294 546.029 40 551 40H624C628.971 40 633 44.0294 633 49V156C633 160.971 628.971 165 624 165H551C546.029 165 542 160.971 542 156V49Z" fill="#242424"/>
<path d="M0 0H699V96H0V0Z" fill="#B1B6B4"/>
<path d="M0 56H699V77H0V56Z" fill="#D9D9D9"/>
<path d="M249 61.6774C249 59.0942 251.175 57 253.859 57H416.141C418.825 57 421 59.0942 421 61.6774V110.323C421 112.906 418.825 115 416.141 115H253.859C251.175 115 249 112.906 249 110.323V61.6774Z" fill="#D9D9D9"/>
<path d="M249.972 62.6129C249.972 60.0296 252.147 57.9355 254.831 57.9355H414.684C417.367 57.9355 419.542 60.0296 419.542 62.6129V109.387C419.542 111.97 417.367 114.065 414.684 114.065H254.831C252.147 114.065 249.972 111.97 249.972 109.387V62.6129Z" fill="#5B141F"/>
<path d="M250.943 63.5484C250.943 60.9651 253.119 58.871 255.802 58.871H413.712C416.395 58.871 418.571 60.9651 418.571 63.5484V108.452C418.571 111.035 416.395 113.129 413.712 113.129H255.802C253.119 113.129 250.943 111.035 250.943 108.452V63.5484Z" fill="#D9D9D9"/>
<path d="M256.736 86.9355V64.873H260.978V74.3284H261.063L269.49 64.873H274.814L265.903 74.5476L274.956 86.9355H269.86L263.227 77.4253L260.978 79.8919V86.9355H256.736Z" fill="#5B141F"/>
<path d="M277.149 86.9355V64.873H292.408V68.3811H281.39V73.8076H291.326V77.2609H281.39V83.4548H292.693V86.9355H277.149Z" fill="#5B141F"/>
<path d="M300.18 74.8765H304.564C305.779 74.8765 306.719 74.5933 307.383 74.0269C308.047 73.4605 308.379 72.6292 308.379 71.5329C308.379 70.5645 308.038 69.7971 307.354 69.2307C306.69 68.6643 305.751 68.3811 304.536 68.3811H300.18V74.8765ZM295.938 86.9355V64.873H305.333C307.725 64.873 309.556 65.476 310.828 66.6819C312.118 67.8695 312.764 69.3769 312.764 71.204C312.764 72.7205 312.431 73.9447 311.767 74.8765C311.103 75.7901 310.325 76.4296 309.433 76.795C310.116 77.27 310.609 77.7725 310.913 78.3024C311.217 78.8139 311.463 79.6179 311.653 80.7141C312.052 82.724 312.906 84.7978 314.216 86.9355H309.49C308.503 85.3642 307.744 83.3909 307.212 81.0156C307.003 80.1021 306.709 79.4352 306.33 79.0149C305.969 78.5764 305.39 78.3572 304.593 78.3572H300.18V86.9355H295.938Z" fill="#5B141F"/>
<path d="M316.778 86.9355V64.873H325.546C328.071 64.873 329.94 65.3938 331.155 66.4352C332.388 67.4767 333.005 68.911 333.005 70.7381C333.005 71.7795 332.759 72.684 332.265 73.4514C331.772 74.2188 331.126 74.8126 330.329 75.2328C331.24 75.58 332.047 76.2012 332.749 77.0965C333.451 77.9917 333.802 79.1063 333.802 80.4401C333.802 82.322 333.176 83.8751 331.923 85.0992C330.671 86.3234 328.925 86.9355 326.685 86.9355H316.778ZM321.02 83.4548H326.002C326.932 83.4548 327.729 83.199 328.393 82.6874C329.076 82.1576 329.418 81.4085 329.418 80.4401C329.418 79.5265 329.114 78.7774 328.507 78.1927C327.9 77.608 327.036 77.3157 325.916 77.3157H321.02V83.4548ZM321.02 73.8625H325.205C326.23 73.8625 327.055 73.6341 327.681 73.1773C328.308 72.7205 328.621 72.0171 328.621 71.067C328.621 69.2764 327.511 68.3811 325.29 68.3811H321.02V73.8625Z" fill="#5B141F"/>
<path d="M344.372 82.0571L348.102 80.8512C348.614 81.7465 349.373 82.4865 350.379 83.0711C351.404 83.6558 352.486 83.9482 353.625 83.9482C354.782 83.9482 355.712 83.6741 356.415 83.1259C357.136 82.5778 357.496 81.8835 357.496 81.043C357.496 80.1112 357.098 79.3712 356.301 78.8231C355.523 78.2749 354.393 77.7634 352.913 77.2883C350.692 76.5757 349.202 76.0185 348.443 75.6165C346.299 74.4654 345.226 72.7753 345.226 70.5462C345.226 68.7009 345.976 67.2118 347.475 66.0789C348.994 64.9461 350.958 64.3797 353.368 64.3797C355.399 64.3797 357.126 64.8365 358.55 65.7501C359.973 66.6636 361.017 67.833 361.681 69.2581L358.123 70.4092C356.87 68.7283 355.276 67.8878 353.34 67.8878C352.182 67.8878 351.271 68.1344 350.607 68.6278C349.943 69.1211 349.61 69.7606 349.61 70.5462C349.61 70.802 349.639 71.0396 349.696 71.2588C349.772 71.4781 349.886 71.6791 350.037 71.8618C350.189 72.0445 350.341 72.2181 350.493 72.3825C350.645 72.5287 350.863 72.6748 351.148 72.821C351.432 72.9672 351.67 73.0951 351.859 73.2047C352.068 73.2961 352.362 73.4148 352.742 73.561C353.141 73.6889 353.444 73.7894 353.653 73.8625C353.881 73.9173 354.222 74.0178 354.678 74.1639C355.133 74.2918 355.466 74.3923 355.674 74.4654C356.547 74.7395 357.316 75.0318 357.98 75.3424C358.645 75.653 359.29 76.055 359.916 76.5483C360.562 77.0416 361.055 77.6537 361.397 78.3846C361.738 79.1154 361.909 79.9376 361.909 80.8512C361.909 82.9341 361.112 84.5511 359.518 85.7022C357.942 86.8533 355.94 87.4288 353.511 87.4288C351.404 87.4288 349.535 86.9446 347.902 85.9762C346.289 85.0079 345.112 83.7015 344.372 82.0571Z" fill="#5B141F"/>
<path d="M365.069 86.9355V64.873H369.311V86.9355H365.069Z" fill="#5B141F"/>
<path d="M374.037 86.9355V64.873H381.012C384.523 64.873 387.209 65.8231 389.069 67.7234C390.948 69.6236 391.887 72.346 391.887 75.8906C391.887 77.0599 391.783 78.1562 391.574 79.1794C391.365 80.2026 390.995 81.1983 390.464 82.1667C389.951 83.1351 389.287 83.9664 388.471 84.6607C387.674 85.3368 386.639 85.8849 385.368 86.3051C384.096 86.7254 382.644 86.9355 381.012 86.9355H374.037ZM378.279 83.4822H380.557C382.834 83.4822 384.552 82.8793 385.709 81.6734C386.886 80.4675 387.475 78.5399 387.475 75.8906C387.475 73.1682 386.867 71.2314 385.653 70.0803C384.457 68.911 382.777 68.3263 380.613 68.3263H378.279V83.4822Z" fill="#5B141F"/>
<path d="M395.361 86.9355V64.873H410.62V68.3811H399.602V73.8076H409.538V77.2609H399.602V83.4548H410.905V86.9355H395.361Z" fill="#5B141F"/>
<path d="M339.13 71.5L341.316 75.2419L339.13 78.9839L336.944 75.2419L339.13 71.5Z" fill="#5B141F"/>
<path d="M305.346 110.323V101.498H308.854C309.864 101.498 310.611 101.706 311.097 102.122C311.591 102.539 311.837 103.113 311.837 103.844C311.837 104.26 311.739 104.622 311.541 104.929C311.344 105.236 311.086 105.473 310.767 105.642C311.131 105.78 311.454 106.029 311.735 106.387C312.016 106.745 312.156 107.191 312.156 107.724C312.156 108.477 311.906 109.098 311.405 109.588C310.904 110.078 310.205 110.323 309.309 110.323H305.346ZM307.043 108.93H309.036C309.408 108.93 309.727 108.828 309.993 108.623C310.266 108.411 310.403 108.112 310.403 107.724C310.403 107.359 310.281 107.059 310.038 106.825C309.795 106.592 309.45 106.475 309.002 106.475H307.043V108.93ZM307.043 105.093H308.717C309.127 105.093 309.457 105.002 309.708 104.819C309.958 104.637 310.084 104.355 310.084 103.975C310.084 103.259 309.64 102.901 308.751 102.901H307.043V105.093Z" fill="#5B141F"/>
<path d="M315.288 105.499H317.042C317.527 105.499 317.903 105.386 318.169 105.159C318.435 104.933 318.568 104.6 318.568 104.162C318.568 103.774 318.431 103.467 318.158 103.241C317.892 103.014 317.516 102.901 317.03 102.901H315.288V105.499ZM313.591 110.323V101.498H317.349C318.306 101.498 319.038 101.739 319.547 102.221C320.063 102.696 320.321 103.299 320.321 104.03C320.321 104.637 320.188 105.126 319.923 105.499C319.657 105.864 319.346 106.12 318.989 106.266C319.262 106.456 319.46 106.657 319.581 106.869C319.702 107.074 319.801 107.396 319.877 107.834C320.037 108.638 320.378 109.467 320.902 110.323H319.012C318.617 109.694 318.313 108.905 318.101 107.955C318.017 107.589 317.899 107.322 317.748 107.154C317.603 106.979 317.372 106.891 317.053 106.891H315.288V110.323H313.591Z" fill="#5B141F"/>
<path d="M321.927 110.323V101.498H323.624V110.323H321.927Z" fill="#5B141F"/>
<path d="M324.808 108.371L326.3 107.889C326.505 108.247 326.808 108.543 327.211 108.777C327.621 109.011 328.053 109.128 328.509 109.128C328.972 109.128 329.344 109.018 329.625 108.799C329.913 108.58 330.058 108.302 330.058 107.966C330.058 107.593 329.898 107.297 329.579 107.078C329.268 106.858 328.816 106.654 328.224 106.464C327.336 106.179 326.74 105.956 326.436 105.795C325.579 105.335 325.15 104.659 325.15 103.767C325.15 103.029 325.45 102.433 326.049 101.98C326.657 101.527 327.442 101.3 328.407 101.3C329.219 101.3 329.91 101.483 330.479 101.848C331.048 102.214 331.466 102.682 331.732 103.252L330.308 103.712C329.807 103.04 329.169 102.704 328.395 102.704C327.932 102.704 327.568 102.802 327.302 102.999C327.036 103.197 326.903 103.453 326.903 103.767C326.903 103.869 326.915 103.964 326.938 104.052C326.968 104.14 327.013 104.22 327.074 104.293C327.135 104.366 327.196 104.436 327.256 104.501C327.317 104.56 327.404 104.618 327.518 104.677C327.632 104.735 327.727 104.786 327.803 104.83C327.886 104.867 328.004 104.914 328.156 104.973C328.315 105.024 328.437 105.064 328.52 105.093C328.611 105.115 328.748 105.155 328.93 105.214C329.113 105.265 329.245 105.305 329.329 105.335C329.678 105.444 329.986 105.561 330.251 105.685C330.517 105.81 330.775 105.97 331.026 106.168C331.284 106.365 331.481 106.61 331.618 106.902C331.755 107.195 331.823 107.523 331.823 107.889C331.823 108.722 331.504 109.369 330.866 109.829C330.236 110.29 329.435 110.52 328.463 110.52C327.621 110.52 326.873 110.326 326.22 109.939C325.575 109.552 325.104 109.029 324.808 108.371Z" fill="#5B141F"/>
<path d="M333.087 110.323V101.498H336.594C337.604 101.498 338.352 101.706 338.838 102.122C339.331 102.539 339.578 103.113 339.578 103.844C339.578 104.26 339.479 104.622 339.282 104.929C339.084 105.236 338.826 105.473 338.507 105.642C338.872 105.78 339.194 106.029 339.475 106.387C339.756 106.745 339.897 107.191 339.897 107.724C339.897 108.477 339.646 109.098 339.145 109.588C338.644 110.078 337.946 110.323 337.05 110.323H333.087ZM334.784 108.93H336.776C337.148 108.93 337.467 108.828 337.733 108.623C338.006 108.411 338.143 108.112 338.143 107.724C338.143 107.359 338.022 107.059 337.779 106.825C337.536 106.592 337.19 106.475 336.742 106.475H334.784V108.93ZM334.784 105.093H336.458C336.868 105.093 337.198 105.002 337.448 104.819C337.699 104.637 337.824 104.355 337.824 103.975C337.824 103.259 337.38 102.901 336.492 102.901H334.784V105.093Z" fill="#5B141F"/>
<path d="M343.188 106.935H345.704L345.033 104.852C344.881 104.37 344.699 103.778 344.486 103.076H344.418C344.357 103.288 344.262 103.595 344.133 103.997C344.011 104.399 343.924 104.684 343.871 104.852L343.188 106.935ZM340.261 110.323L343.541 101.498H345.363L348.642 110.323H346.843L346.149 108.24H342.755L342.06 110.323H340.261Z" fill="#5B141F"/>
<path d="M349.542 110.323V101.498H351.284L353.869 106.102L354.86 107.878H354.917C354.796 107.023 354.735 106.168 354.735 105.313V101.498H356.432V110.323H354.689L352.116 105.839L351.102 103.986H351.057C351.178 104.797 351.239 105.652 351.239 106.551V110.323H349.542Z" fill="#5B141F"/>
<path d="M358.333 110.323V101.498H364.437V102.901H360.03V105.071H364.004V106.453H360.03V108.93H364.551V110.323H358.333Z" fill="#5B141F"/>
<path d="M10 31C10 29.8954 10.8954 29 12 29H44C45.1046 29 46 29.8954 46 31V84C46 85.1046 45.1046 86 44 86H12C10.8954 86 10 85.1046 10 84V31Z" fill="#D22828"/>
<path d="M645 31C645 29.8954 645.895 29 647 29H679C680.105 29 681 29.8954 681 31V84C681 85.1046 680.105 86 679 86H647C645.895 86 645 85.1046 645 84V31Z" fill="#D22828"/>
<path d="M206 119H463V130H206V119Z" fill="#D9D9D9"/>
<path d="M206 76H217V122H206V76Z" fill="#D9D9D9"/>
<path d="M452 76H463V122H452V76Z" fill="#D9D9D9"/>
</svg>
