<svg width="686" height="214" viewBox="0 0 686 214" fill="none" xmlns="http://www.w3.org/2000/svg">
<path d="M243.754 0L535.605 9.3387L525.851 314.183L234 304.844L243.754 0Z" fill="#FAFAFA"/>
<path d="M268.07 21.7888C268.158 19.0288 270.467 16.863 273.227 16.9513L295.216 17.6549C297.976 17.7432 300.142 20.0522 300.054 22.8122L299.798 30.8081C299.71 33.5681 297.4 35.734 294.64 35.6457L272.652 34.9421C269.892 34.8537 267.726 32.5447 267.814 29.7847L268.07 21.7888Z" fill="#D9D9D9"/>
<path d="M490.116 23.8913L503.11 24.3071L496.905 218.208L483.912 217.792L490.116 23.8913Z" fill="#E8E8E8"/>
<path d="M236.495 226.884L528.345 236.223L528.185 241.22L236.335 231.881L236.495 226.884Z" fill="#D9D9D9"/>
<path d="M0 74.7801L272.484 46L306.726 370.197L34.242 398.977L0 74.7801Z" fill="#F0F0F0"/>
<path d="M1.55254 89.4792L274.037 60.6991L280.333 120.312L7.84893 149.092L1.55254 89.4792Z" fill="#D9D9D9"/>
<path d="M2.462 90.2089L100.425 79.8619L106.549 137.842L8.58589 148.189L2.462 90.2089Z" fill="#F4F4F4"/>
<path d="M2.462 90.2089L100.425 79.8619L106.549 137.842L8.58589 148.189L2.462 90.2089Z" fill="#F4F4F4"/>
<path d="M2.462 90.2089L100.425 79.8619L106.549 137.842L8.58589 148.189L2.462 90.2089Z" fill="#F4F4F4"/>
<path d="M101.248 79.775L273.3 61.6026L279.424 119.582L107.372 137.755L101.248 79.775Z" fill="#F4F4F4"/>
<path d="M101.248 79.775L273.3 61.6026L279.424 119.582L107.372 137.755L101.248 79.775Z" fill="#F4F4F4"/>
<path d="M101.248 79.775L273.3 61.6026L279.424 119.582L107.372 137.755L101.248 79.775Z" fill="#F4F4F4"/>
<path d="M255.781 92.7663C256.472 99.3058 251.688 105.172 245.095 105.868C238.503 106.564 232.599 101.827 231.908 95.2878C231.217 88.7482 236.002 82.8824 242.594 82.1861C249.187 81.4898 255.091 86.2267 255.781 92.7663Z" fill="#D9D9D9"/>
<path d="M166.008 101.835C166.246 104.09 164.596 106.113 162.323 106.353C160.05 106.593 158.014 104.96 157.776 102.705C157.538 100.45 159.187 98.4271 161.46 98.187C163.734 97.9469 165.77 99.5804 166.008 101.835Z" fill="#D9D9D9"/>
<path d="M180.003 100.357C180.241 102.612 178.591 104.635 176.318 104.875C174.044 105.115 172.009 103.482 171.77 101.227C171.532 98.9717 173.182 96.949 175.455 96.7089C177.728 96.4688 179.764 98.1022 180.003 100.357Z" fill="#D9D9D9"/>
<path d="M195.644 98.7052C195.882 100.96 194.232 102.983 191.959 103.223C189.686 103.463 187.65 101.83 187.411 99.5747C187.173 97.3197 188.823 95.297 191.096 95.0569C193.369 94.8168 195.405 96.4502 195.644 98.7052Z" fill="#D9D9D9"/>
<path d="M247.779 245.545C253.042 295.381 216.583 340.083 166.344 345.389C116.105 350.695 71.1117 314.597 65.8479 264.761C60.5842 214.925 97.0437 170.223 147.282 164.917C197.521 159.611 242.515 195.709 247.779 245.545Z" fill="#D9D9D9"/>
<path d="M209.638 97.2271C209.876 99.4821 208.227 101.505 205.953 101.745C203.68 101.985 201.644 100.352 201.406 98.0966C201.168 95.8415 202.818 93.8188 205.091 93.5787C207.364 93.3386 209.4 94.9721 209.638 97.2271Z" fill="#D9D9D9"/>
<path d="M218.966 248.588C222.563 282.639 197.651 313.182 163.325 316.808C128.999 320.433 98.257 295.769 94.6605 261.718C91.064 227.667 115.975 197.124 150.301 193.499C184.627 189.873 215.37 214.538 218.966 248.588Z" fill="#1C1B1B"/>
<path d="M513.883 54.8132L682.291 89.7796L684.303 109.603L506.104 72.6032L513.883 54.8132Z" fill="#C9C6C6"/>
<path d="M507.527 65.7494L685.726 102.749L653.199 259.408L475 222.408L507.527 65.7494Z" fill="#D9D9D9"/>
<path d="M518.592 81.3241L668.397 112.428L645.221 224.047L495.416 192.943L518.592 81.3241Z" fill="#747474"/>
<path d="M504.56 203.013L632.825 229.644L628.962 248.247L500.698 221.616L504.56 203.013Z" fill="#A8A8A8"/>
<path d="M529.167 217.314C528.493 220.558 523.783 222.324 518.645 221.257C513.508 220.19 509.89 216.696 510.564 213.451C511.237 210.207 515.948 208.441 521.085 209.508C526.222 210.574 529.841 214.069 529.167 217.314Z" fill="#636363"/>
</svg>
